999
Reality Cloud 2.1.7
0
SECTION
2
HEADER
9
$INSUNITS
70
6
9
$EXTMIN
10
-294.9199999998382
20
-106.76000000005739
9
$EXTMAX
10
151.5100000000649
20
117.43999999997024
0
ENDSEC
0
SECTION
2
TABLES
0
TABLE
2
LTYPE
0
LTYPE
72
65
70
64
2
CONTINUOUS
3
______
73
0
40
0
0
LTYPE
72
65
70
64
2
DASHED
3
_ _ _ 
73
2
40
10
49
5
49
-5
0
LTYPE
72
65
70
64
2
DOTTED
3
. . . 
73
2
40
5
49
0
49
-5
0
ENDTAB
0
TABLE
2
LAYER
0
LAYER
70
64
2
0
62
7
6
CONTINUOUS
0
LAYER
70
64
2
Project Plane
420
16777215
6
CONTINUOUS
0
LAYER
70
64
2
projected Measure_00
62
2
6
CONTINUOUS
0
LAYER
70
64
2
projected Measure_11
62
2
6
CONTINUOUS
0
LAYER
70
64
2
projected Point2
62
2
6
CONTINUOUS
0
LAYER
70
64
2
projected Point3
62
2
6
CONTINUOUS
0
LAYER
70
64
2
projected Point4
62
2
6
CONTINUOUS
0
LAYER
70
64
2
projected Measure_55
62
2
6
CONTINUOUS
0
LAYER
70
64
2
projected Measure_66
62
2
6
CONTINUOUS
0
LAYER
70
64
2
projected Measure_77
62
2
6
CONTINUOUS
0
LAYER
70
64
2
Annotations
420
11674146
6
CONTINUOUS
0
ENDTAB
0
ENDSEC
0
SECTION
2
ENTITIES
0
POLYLINE
8
Project Plane
66
1
70
1
40
2
41
2
0
VERTEX
8
Project Plane
70
0
10
-290.04
20
-145.035
0
VERTEX
8
Project Plane
70
0
10
290.04
20
-145.035
0
VERTEX
8
Project Plane
70
0
10
290.04
20
290.04
0
VERTEX
8
Project Plane
70
0
10
-290.04
20
290.04
0
SEQEND
0
TEXT
8
projected Measure_00
1
110.73 m
10
44.205000000114055
20
-7.210000000011938
30
0
40
4.484000000000552
50
0
11
44.205000000114055
21
-7.210000000011938
31
0
72
1
73
2
0
TEXT
8
projected Measure_00
1
100.71 m
10
-13.564999999879383
20
61.13999999994833
30
0
40
4.484000000000552
50
0
11
-13.564999999879383
21
61.13999999994833
31
0
72
1
73
2
0
TEXT
8
projected Measure_00
1
116.61 m
10
-63.43999999987445
20
16.634999999957632
30
0
40
4.484000000000552
50
0
11
-63.43999999987445
21
16.634999999957632
31
0
72
1
73
2
0
POLYLINE
8
projected Measure_00
66
1
70
0
40
1
41
1
0
VERTEX
8
projected Measure_00
70
0
10
53.540000000089535
20
-61.780000000025
0
VERTEX
8
projected Measure_00
70
0
10
34.87000000007263
20
47.35999999993516
0
VERTEX
8
projected Measure_00
70
0
10
-61.999999999963286
20
74.91999999996149
0
VERTEX
8
projected Measure_00
70
0
10
-64.8799999999175
20
-41.650000000046234
0
SEQEND
0
TEXT
8
projected Measure_11
1
57.90 m
10
-201.53999999994232
20
-65.55000000004944
30
0
40
4.484000000000552
50
0
11
-201.53999999994232
21
-65.55000000004944
31
0
72
1
73
2
0
TEXT
8
projected Measure_11
1
56.83 m
10
-187.52999999996035
20
-23.52500000004666
30
0
40
4.484000000000552
50
0
11
-187.52999999996035
21
-23.52500000004666
31
0
72
1
73
2
0
TEXT
8
projected Measure_11
1
75.93 m
10
-232.27499999984323
20
19.079999999942128
30
0
40
4.484000000000552
50
0
11
-232.27499999984323
21
19.079999999942128
31
0
72
1
73
2
0
TEXT
8
projected Measure_11
1
58.20 m
10
-280.77499999984803
20
9.809999999950335
30
0
40
4.484000000000552
50
0
11
-280.77499999984803
21
9.809999999950335
31
0
72
1
73
2
0
TEXT
8
projected Measure_11
1
7,994.2 m²
10
-232.5099999999478
20
-21.712000000047595
30
0
40
4.484000000000552
50
0
11
-232.5099999999478
21
-21.712000000047595
31
0
72
1
73
2
0
POLYLINE
8
projected Measure_11
66
1
70
1
40
1
41
1
0
VERTEX
8
projected Measure_11
70
0
10
-225.93999999985854
20
-81.13000000004533
0
VERTEX
8
projected Measure_11
70
0
10
-177.1399999999602
20
-49.97000000005356
0
VERTEX
8
projected Measure_11
70
0
10
-197.9199999998286
20
2.91999999996024
0
VERTEX
8
projected Measure_11
70
0
10
-266.6299999999238
20
35.23999999995699
0
VERTEX
8
projected Measure_11
70
0
10
-294.9199999998382
20
-15.620000000023348
0
SEQEND
0
POINT
8
projected Point2
10
137.100000000027
20
-88.90000000004602
30
0
0
TEXT
8
projected Point2
1
590,072.07 / 231,340.51 / 760.70
10
137.100000000027
20
-79.93200000004492
30
0
40
4.484000000000552
50
0
11
137.100000000027
21
-79.93200000004492
31
0
72
1
73
2
0
POINT
8
projected Point3
10
151.5100000000649
20
-11.270000000012898
30
0
0
TEXT
8
projected Point3
1
590,086.48 / 231,418.14 / 760.70
10
151.5100000000649
20
-2.302000000011793
30
0
40
4.484000000000552
50
0
11
151.5100000000649
21
-2.302000000011793
31
0
72
1
73
2
0
POINT
8
projected Point4
10
149.77000000006234
20
49.48999999995484
30
0
0
TEXT
8
projected Point4
1
590,084.74 / 231,478.90 / 760.70
10
149.77000000006234
20
58.457999999955945
30
0
40
4.484000000000552
50
0
11
149.77000000006234
21
58.457999999955945
31
0
72
1
73
2
0
CIRCLE
8
projected Measure_55
10
-138.01908084174465
20
13.29503296802866
30
0
40
65.919
0
POINT
8
projected Measure_55
10
-138.01908084174465
20
13.29503296802866
30
0
0
TEXT
8
projected Measure_66
1
99.8°
10
81.5851949370293
20
79.11805724131196
30
0
40
4.484000000000552
50
0
11
81.5851949370293
21
79.11805724131196
31
0
72
1
73
2
0
TEXT
8
projected Measure_66
1
43.4°
10
120.39640928937237
20
104.1734469362277
30
0
40
4.484000000000552
50
0
11
120.39640928937237
21
104.1734469362277
31
0
72
1
73
2
0
TEXT
8
projected Measure_66
1
36.8°
10
43.13039900075252
20
114.71074315141514
30
0
40
4.484000000000552
50
0
11
43.13039900075252
21
114.71074315141514
31
0
72
1
73
2
0
POLYLINE
8
projected Measure_66
66
1
70
1
40
1
41
1
0
VERTEX
8
projected Measure_66
70
0
10
81.59000000012861
20
72.98999999994723
0
VERTEX
8
projected Measure_66
70
0
10
126.46000000014851
20
105.05999999996196
0
VERTEX
8
projected Measure_66
70
0
10
36.66000000009043
20
117.43999999997024
0
SEQEND
0
POLYLINE
8
projected Measure_77
66
1
70
0
40
1
41
1
0
VERTEX
8
projected Measure_77
70
0
10
30.220000000040756
20
-106.76000000005739
0
VERTEX
8
projected Measure_77
70
0
10
30.35962498720953
20
-29.970056344156962
0
SEQEND
0
TEXT
8
projected Measure_77
1
279.56°
10
-16.729637752331673
20
-45.995980095932104
30
0
40
4.484000000000552
50
0
11
-16.729637752331673
21
-45.995980095932104
31
0
72
1
73
2
0
POLYLINE
8
projected Measure_77
66
1
70
0
40
1
41
1
0
VERTEX
8
projected Measure_77
70
0
10
30.220000000040756
20
-106.76000000005739
0
VERTEX
8
projected Measure_77
70
0
10
-43.42999999984495
20
-88.41000000003113
0
SEQEND
0
TEXT
8
Annotations
1
Distance measurementm
10
0.6500000000661476
20
5.1099999999386645
30
0
40
4.484000000000552
50
0
11
0.6500000000661476
21
5.1099999999386645
31
0
72
1
73
2
0
TEXT
8
Annotations
1
Area measurementm
10
-223.17999999987492
20
-4.350000000043427
30
0
40
4.484000000000552
50
0
11
-223.17999999987492
21
-4.350000000043427
31
0
72
1
73
2
0
TEXT
8
Annotations
1
Points measurementm
10
122.39000000009551
20
-50.25000000004794
30
0
40
4.484000000000552
50
0
11
122.39000000009551
21
-50.25000000004794
31
0
72
1
73
2
0
TEXT
8
Annotations
1
Angle measurementm
10
88.28000000012256
20
95.30999999997037
30
0
40
4.484000000000552
50
0
11
88.28000000012256
21
95.30999999997037
31
0
72
1
73
2
0
TEXT
8
Annotations
1
Circle measurementm
10
-121.19999999986484
20
40.44999999994783
30
0
40
4.484000000000552
50
0
11
-121.19999999986484
21
40.44999999994783
31
0
72
1
73
2
0
ENDSEC
0
EOF